# This file uses centimeters as units for non-parametric coordinates.

mtllib stoneL 1.mtl
g default
v 257.398187 16.111359 161.984879
v 135.460275 28.688646 215.928800
v 234.533928 32.222718 169.605189
v 234.533928 28.195278 161.984879
v 165.944727 32.222718 283.922500
v 134.140541 16.111359 283.922500
v 147.511817 31.339204 266.924057
v 134.978112 -32.222718 247.919252
v 134.579779 -14.419543 283.922500
v 257.398187 -32.222390 271.532092
v 223.719496 -36.329715 157.749666
v 245.750647 -36.508836 209.445113
v 257.398187 -20.139209 161.984879
v 170.570453 -37.059114 161.450982
v 135.460275 -34.341292 213.606991
v 146.202695 6.128043 167.493891
v 135.460275 9.754796 180.103940
v 257.398187 2.430034 278.868439
v 240.621071 5.707885 283.922500
v 226.616107 -16.771794 306.375881
v 257.398187 29.214335 201.193615
v 257.398187 28.445864 185.323058
v 251.682675 32.222718 186.753848
v 248.173599 31.955369 194.244016
v 210.373760 43.043323 256.435845
v 257.398187 25.626487 262.190023
v 198.421093 40.221103 279.589227
v 197.895147 39.514702 283.922500
v 209.788086 29.486349 283.922500
vt 0.625000 0.625000
vt 0.531247 0.468753
vt 0.257812 0.250000
vt 0.375000 0.367188
vt 0.625000 0.862298
vt 0.375000 0.772922
vt 0.375000 0.974596
vt 0.391942 0.517317
vt 0.375000 0.507813
vt 0.531247 0.531247
vt 0.390756 0.750000
vt 0.625000 0.687500
vt 0.500000 0.750000
vt 0.128905 0.238282
vt 0.349596 0.000000
vt 0.140623 0.250000
vt 0.125000 -0.000000
vt 0.147922 0.000000
vt 0.125888 0.235265
vt 0.375000 1.000000
vt 0.625000 0.974597
vt 0.599598 1.000000
vt 0.638816 0.152632
vt 0.650403 0.000002
vt 0.762702 0.000000
vt 0.875000 0.062500
vt 0.375000 0.016936
vt 0.599598 0.029793
vt 0.375000 0.125000
vt 0.875000 0.125000
vt 0.779303 0.220697
vt 0.562494 0.437506
vt 0.601564 0.398436
vt 0.458333 0.250000
vt 0.624362 0.367384
vt 0.606088 0.383274
vt 0.623629 0.313443
vt 0.624235 0.311926
vt 0.531045 0.264937
vt 0.552456 0.233815
vt 0.375000 0.484377
vt 0.610761 0.324160
vt 0.738773 0.240168
vt 0.679284 0.228442
vt 0.625000 0.166448
vt 0.625000 0.276787
vt 0.599437 0.163345
vt 0.619486 0.280327
vt 0.746996 0.259013
vt 0.720697 0.337908
vt 0.703128 0.296872
vt 0.710153 0.289847
vt 0.530760 0.250000
vn 0.423328 0.800988 -0.423334
vn 0.423328 0.800988 -0.423334
vn 0.423328 0.800988 -0.423334
vn 0.444725 -0.874723 -0.192560
vn 0.444725 -0.874723 -0.192560
vn 0.444725 -0.874723 -0.192560
vn -0.413073 0.815415 0.405549
vn -0.413073 0.815415 0.405549
vn -0.413073 0.815415 0.405549
vn -0.999858 -0.010196 -0.013421
vn -0.999858 -0.010196 -0.013421
vn -0.999858 -0.010196 -0.013421
vn -0.999950 -0.003551 -0.009307
vn -0.999950 -0.003551 -0.009307
vn -0.999950 -0.003551 -0.009307
vn -0.999827 -0.014384 -0.011829
vn -0.999827 -0.014384 -0.011829
vn -0.999827 -0.014384 -0.011829
vn -0.999527 0.027191 -0.014371
vn -0.999527 0.027191 -0.014371
vn -0.999527 0.027191 -0.014371
vn -0.674614 0.728088 0.121586
vn -0.674614 0.728088 0.121586
vn -0.674614 0.728088 0.121586
vn -0.024292 0.999410 0.024292
vn -0.100121 0.986524 -0.129405
vn 0.085615 0.995521 -0.040092
vn 0.083283 0.994568 -0.062446
vn 0.000000 0.998652 -0.051907
vn 0.000000 0.998652 -0.051907
vn 0.000000 0.998652 -0.051907
vn -0.237092 -0.003411 0.971481
vn -0.237092 -0.003411 0.971481
vn -0.237092 -0.003411 0.971481
vn 0.066826 0.683965 0.726448
vn 0.066826 0.683965 0.726448
vn 0.066826 0.683965 0.726448
vn -0.000000 0.000000 1.000000
vn -0.000000 0.000000 1.000000
vn -0.000000 0.000000 1.000000
vn 0.000000 0.000000 1.000000
vn 0.000000 0.000000 1.000000
vn 0.000000 0.000000 1.000000
vn 0.000000 0.000000 1.000000
vn -0.129674 -0.889396 0.438361
vn -0.129674 -0.889395 0.438361
vn -0.129674 -0.889395 0.438361
vn -0.068176 -0.932959 0.353468
vn -0.068176 -0.932959 0.353468
vn -0.068176 -0.932959 0.353468
vn 0.981586 0.039565 -0.186877
vn 0.981586 0.039565 -0.186877
vn 0.981586 0.039565 -0.186877
vn 0.906904 -0.413695 0.079881
vn 0.906904 -0.413695 0.079881
vn 0.906904 -0.413695 0.079881
vn 1.000000 0.000000 0.000000
vn 1.000000 0.000000 0.000000
vn 1.000000 0.000000 0.000000
vn 1.000000 0.000000 0.000000
vn 1.000000 0.000000 0.000000
vn 1.000000 0.000000 0.000000
vn 1.000000 0.000000 0.000000
vn -0.084638 0.091082 -0.992240
vn -0.084638 0.091082 -0.992240
vn -0.084638 0.091082 -0.992240
vn -0.070318 0.077064 -0.994543
vn -0.070318 0.077064 -0.994543
vn -0.070318 0.077064 -0.994543
vn 0.101803 0.048157 -0.993638
vn 0.101803 0.048157 -0.993638
vn 0.101803 0.048157 -0.993638
vn 0.000000 0.000000 -1.000000
vn 0.000000 0.000000 -1.000000
vn 0.000000 0.000000 -1.000000
vn -0.013777 -0.997350 0.071441
vn -0.013777 -0.997350 0.071441
vn -0.013777 -0.997350 0.071441
vn -0.034729 -0.999332 0.011338
vn -0.034729 -0.999332 0.011338
vn -0.034729 -0.999332 0.011338
vn 0.016661 -0.997946 0.061851
vn 0.016661 -0.997946 0.061851
vn 0.016661 -0.997946 0.061851
vn 0.018165 -0.997770 0.064222
vn 0.018165 -0.997770 0.064222
vn 0.018165 -0.997770 0.064222
vn -0.242550 0.857716 -0.453313
vn -0.242550 0.857716 -0.453313
vn -0.242550 0.857716 -0.453313
vn -0.242550 0.857716 -0.453313
vn -0.242550 0.857716 -0.453313
vn -0.242550 0.857716 -0.453313
vn -0.242550 0.857715 -0.453314
vn -0.242550 0.857715 -0.453314
vn -0.242550 0.857715 -0.453314
vn -0.779740 -0.369203 -0.505663
vn -0.779740 -0.369203 -0.505663
vn -0.779740 -0.369203 -0.505663
vn -0.751451 -0.399152 -0.525356
vn -0.751451 -0.399152 -0.525356
vn -0.751451 -0.399152 -0.525356
vn 0.363065 0.530814 0.765781
vn 0.337548 0.551583 0.762770
vn 0.337570 0.550497 0.763544
vn 0.708321 -0.146205 0.690584
vn 0.708321 -0.146205 0.690584
vn 0.708321 -0.146205 0.690583
vn 0.424208 0.826527 -0.370000
vn 0.423328 0.800989 -0.423331
vn 0.423328 0.800989 -0.423331
vn -0.211402 0.975420 0.062164
vn -0.211859 0.976255 0.045179
vn -0.231446 0.971123 0.057900
vn 0.329762 0.943075 0.043198
vn 0.328360 0.943559 0.043309
vn 0.328360 0.943559 0.043309
vn 0.373468 0.674787 0.636541
vn 0.333267 0.842739 0.422757
vn 0.333267 0.842739 0.422757
vn 0.354152 0.781859 0.513101
vn -0.103916 0.982289 -0.155916
vn 1.000000 0.000000 0.000000
vn 0.631765 0.749229 0.198818
s off
g pCube8
usemtl initialShadingGroup
f 3/32/1 1/1/2 4/10/3
f 13/26/4 12/5/5 11/13/6
f 7/3/7 6/29/8 5/34/9
f 15/18/10 8/15/11 17/14/12
f 8/15/13 9/27/14 17/14/15
f 9/27/16 6/29/17 17/14/18
f 17/14/19 6/29/20 2/16/21
f 6/29/22 7/3/23 2/16/24
s 1
f 3/2/25 2/41/26 24/36/27 23/33/28
s off
f 7/4/29 5/34/30 2/41/31
f 9/27/32 20/28/33 6/29/34
f 20/28/35 19/47/36 6/29/37
f 6/29/38 19/47/39 5/34/40
f 19/47/41 29/40/42 28/53/43 5/34/44
f 9/20/45 8/7/46 20/22/47
f 20/22/48 8/7/49 10/21/50
f 10/24/51 12/25/52 18/23/53
f 12/25/54 13/26/55 18/23/56
f 13/26/57 1/30/58 18/23/59
s 2
f 1/30/60 22/31/61 21/43/62 18/23/63
s off
f 16/8/64 4/10/65 14/11/66
f 14/11/67 4/10/68 11/13/69
f 11/13/70 4/10/71 13/12/72
f 4/10/73 1/1/74 13/12/75
f 10/21/76 8/7/77 12/5/78
f 12/5/79 8/7/80 11/13/81
f 8/7/82 15/6/83 11/13/84
f 15/6/85 14/11/86 11/13/87
f 2/41/88 3/2/89 17/9/90
f 17/9/91 3/2/92 16/8/93
f 16/8/94 3/2/95 4/10/96
f 14/17/97 15/18/98 16/19/99
f 16/19/100 15/18/101 17/14/102
s 3
f 19/47/103 20/28/104 18/23/105
s off
f 18/23/106 20/28/107 10/24/108
s 1
f 23/51/28 22/50/109 1/1/110 3/32/111
f 28/53/112 27/39/113 2/41/26 5/34/114
f 21/35/115 24/36/27 25/42/116 26/37/117
s 3
f 26/38/118 25/42/119 27/39/120 29/40/121
s 1
f 25/42/122 24/36/27 2/41/26
f 25/42/122 2/41/26 27/39/113
s 2
f 18/23/63 21/43/62 26/44/123
s 3
f 18/45/105 26/46/118 19/47/103
f 19/47/103 26/48/118 29/40/121
s 1
f 21/49/115 22/50/109 23/51/28 24/52/27
f 27/39/113 28/53/112 29/40/124
