# This file uses centimeters as units for non-parametric coordinates.

mtllib stone 3.mtl
g default
v -67.947524 -5.451519 219.794178
v 67.947524 -5.451519 219.794178
v 67.947524 12.604917 219.794154
v -67.947524 12.604917 83.899106
v -67.947524 -5.451519 83.899130
v 67.947524 -5.451519 83.899130
v 33.973762 5.451519 83.899106
v 67.947524 9.296010 117.872868
v 67.947524 -1.003036 83.899114
v 33.973762 2.725759 83.899114
v -48.718748 12.604917 219.794154
v -67.947524 2.725759 219.794162
v -67.947524 5.451519 185.820392
v -48.718748 9.879158 219.794162
vt 0.375000 0.000000
vt 0.625000 0.000000
vt 0.625000 0.250000
vt 0.375000 0.500000
vt 0.375000 0.750000
vt 0.625000 0.750000
vt 0.375000 1.000000
vt 0.625000 1.000000
vt 0.875000 0.000000
vt 0.125000 0.000000
vt 0.125000 0.250000
vt 0.500000 0.500000
vt 0.625000 0.375000
vt 0.750000 0.250000
vt 0.625000 0.625000
vt 0.875000 0.125000
vt 0.500000 0.625000
vt 0.500000 0.250000
vt 0.375000 0.125000
vt 0.250000 0.250000
vt 0.375000 0.375000
vt 0.500000 0.125000
vn 0.174669 0.919378 -0.352470
vn 0.174669 0.919378 -0.352470
vn 0.174669 0.919378 -0.352470
vn 0.174669 0.919378 -0.352470
vn 0.000000 -1.000000 0.000000
vn 0.000000 -1.000000 0.000000
vn 0.000000 -1.000000 0.000000
vn 0.000000 -1.000000 0.000000
vn 0.000000 -1.000000 0.000000
vn 0.000000 -1.000000 0.000000
vn 1.000000 0.000000 0.000000
vn 1.000000 0.000000 0.000000
vn 1.000000 0.000000 0.000000
vn -1.000000 -0.000000 0.000000
vn -1.000000 -0.000000 0.000000
vn -1.000000 -0.000000 0.000000
vn -0.452400 0.880551 0.141295
vn -0.452400 0.880551 0.141295
vn -0.452400 0.880551 0.141295
vn -0.452400 0.880551 0.141295
vn 1.000000 0.000000 0.000000
vn 1.000000 0.000000 0.000000
vn 1.000000 0.000000 0.000000
vn 1.000000 0.000000 0.000000
vn -0.000000 -0.000002 -1.000000
vn -0.000000 -0.000002 -1.000000
vn -0.000000 -0.000002 -1.000000
vn -0.000000 -0.000002 -1.000000
vn -0.000000 -0.000002 -1.000000
vn -0.000000 -0.000002 -1.000000
vn -0.000000 -0.000002 -1.000000
vn -0.000000 -0.000002 -1.000000
vn 0.039899 0.997249 -0.062469
vn 0.039899 0.997249 -0.062469
vn 0.039899 0.997249 -0.062469
vn 0.039899 0.997249 -0.062469
vn 0.000000 0.000002 1.000000
vn 0.000000 0.000002 1.000000
vn 0.000000 0.000002 1.000000
vn 0.000000 0.000002 1.000000
vn -0.054487 0.998485 0.007710
vn -0.054487 0.998485 0.007710
vn -0.054487 0.998485 0.007710
vn -0.054487 0.998485 0.007710
vn -1.000000 0.000001 0.000000
vn -1.000000 0.000001 0.000000
vn -1.000000 0.000001 0.000000
vn -1.000000 0.000001 0.000000
vn -0.000000 0.000001 1.000000
vn -0.000000 0.000001 1.000000
vn -0.000000 0.000001 1.000000
vn -0.000000 0.000001 1.000000
s off
g pCube3
usemtl initialShadingGroup
f 8/14/1 9/15/2 10/17/3 7/12/4
f 5/5/5 6/6/6 1/7/7
f 1/7/8 6/6/9 2/8/10
f 2/2/11 6/9/12 3/3/13
f 5/10/14 1/1/15 4/11/16
f 14/22/17 11/18/18 13/20/19 12/19/20
f 3/3/21 6/9/22 9/16/23 8/14/24
f 5/5/25 10/17/26 9/15/27 6/6/28
f 4/4/29 7/12/30 10/17/31 5/5/32
f 4/4/33 3/3/34 8/13/35 7/12/36
f 11/18/37 14/22/38 2/2/39 3/3/40
f 13/21/41 11/18/42 3/3/43 4/4/44
f 4/11/45 1/1/46 12/19/47 13/20/48
f 1/1/49 2/2/50 14/22/51 12/19/52
