# This file uses centimeters as units for non-parametric coordinates.

mtllib stoneS 3.mtl
g default
v -286.955706 -10.038008 -161.357181
v -215.383498 -10.038008 -161.357181
v -286.955706 -10.038008 -232.929355
v -215.383498 -10.038008 -232.929355
v -269.062624 10.038008 -232.929355
v -286.955706 5.019004 -161.357181
v -286.955706 10.038008 -179.250212
v -286.955706 10.038008 -215.036359
v -286.955706 5.019004 -232.929355
v -215.383498 10.038008 -215.036359
v -217.874146 5.019004 -232.929355
v -247.313934 10.038008 -232.929355
v -273.535442 10.038008 -165.829982
v -273.369238 8.830011 -161.357181
v -218.352112 6.867813 -161.357181
v -215.383498 2.562370 -161.357181
v -218.412041 10.038008 -164.695627
v -215.383498 10.038008 -168.916800
vt 0.375000 0.750000
vt 0.625000 0.750000
vt 0.375000 1.000000
vt 0.625000 1.000000
vt 0.125000 0.000000
vt 0.500000 0.500000
vt 0.375000 0.125000
vt 0.291667 0.250000
vt 0.208333 0.250000
vt 0.125000 0.125000
vt 0.375000 0.625000
vt 0.625000 0.625000
vt 0.562500 0.500000
vt 0.447922 0.250000
vt 0.375000 0.000000
vt 0.375000 0.333333
vt 0.468753 0.270831
vt 0.616863 0.258316
vt 0.625000 0.267604
vt 0.625000 0.375000
vt 0.375000 0.416667
vt 0.617060 0.209752
vt 0.469914 0.219914
vt 0.625000 0.000000
vt 0.875000 0.000000
vt 0.875000 0.125000
vt 0.750000 0.250000
vt 0.642604 0.250000
vt 0.625000 0.156908
vt 0.632774 0.250000
vn 0.000000 -1.000000 0.000000
vn 0.000000 -1.000000 0.000000
vn 0.000000 -1.000000 0.000000
vn 0.000000 -1.000000 0.000000
vn -0.260734 0.929535 0.260735
vn -0.260734 0.929535 0.260735
vn -0.112130 0.912489 0.393436
vn -0.120939 0.914489 0.386113
vn 0.000000 0.000000 1.000000
vn 0.000000 0.000000 1.000000
vn 0.000000 0.000000 1.000000
vn 0.000000 0.000000 1.000000
vn 0.000000 0.000000 1.000000
vn 0.000000 0.000000 1.000000
vn -0.260734 0.929535 -0.260735
vn -0.260734 0.929535 -0.260735
vn -0.260734 0.929535 -0.260735
vn 0.160975 0.944228 -0.287264
vn 0.160975 0.944228 -0.287264
vn 0.160975 0.944228 -0.287264
vn -1.000000 0.000000 0.000000
vn -1.000000 0.000000 0.000000
vn -1.000000 0.000000 0.000000
vn -1.000000 0.000000 0.000000
vn -1.000000 0.000000 0.000000
vn -1.000000 0.000000 0.000000
vn 0.000000 1.000000 0.000000
vn 0.000000 1.000000 0.000000
vn 0.000000 1.000000 0.000000
vn 0.000000 1.000000 0.000000
vn 0.000000 1.000000 0.000000
vn 0.000000 1.000000 0.000000
vn 0.000000 1.000000 0.000000
vn 0.000000 1.000000 0.000000
vn 0.999699 0.016335 -0.018327
vn 0.999699 0.016335 -0.018327
vn 0.999699 0.016335 -0.018327
vn 0.999699 0.016335 -0.018327
vn 0.999699 0.016335 -0.018327
vn 0.999699 0.016335 -0.018327
vn 0.000000 0.000000 -1.000000
vn 0.000000 0.000000 -1.000000
vn 0.000000 0.000000 -1.000000
vn 0.000000 0.000000 -1.000000
vn 0.000000 0.000000 -1.000000
vn 0.000000 0.000000 -1.000000
vn 0.010509 0.872402 0.488676
vn 0.010509 0.872402 0.488676
vn 0.709001 0.506405 0.490786
vn 0.709001 0.506405 0.490786
vn 0.709001 0.506405 0.490786
vn 0.709001 0.506405 0.490786
s off
g pCube12
usemtl initialShadingGroup
f 3/1/1 4/2/2 2/4/3 1/3/4
s 1
f 7/8/5 6/7/6 14/23/7 13/14/8
s off
f 1/15/9 2/24/10 16/29/11 15/22/12 14/23/13 6/7/14
f 9/10/15 8/21/16 5/6/17
f 12/13/18 10/27/19 11/12/20
f 3/5/21 1/15/22 6/7/23 7/8/24 8/9/25 9/10/26
f 7/16/27 13/17/28 17/18/29 18/19/30 10/20/31 12/13/32 5/6/33 8/21/34
f 2/24/35 4/25/36 11/26/37 10/27/38 18/28/39 16/29/40
f 9/11/41 5/6/42 12/13/43 11/12/44 4/2/45 3/1/46
s 1
f 15/22/47 17/18/48 13/17/8 14/23/7
s off
f 15/22/49 16/29/50 18/28/51 17/30/52
