# This file uses centimeters as units for non-parametric coordinates.

mtllib stoneL 2.mtl
g default
v 248.492467 32.222717 -30.484424
v 257.398187 16.111358 -60.968847
v 135.460318 28.688646 -7.024886
v 234.533972 32.222717 -53.348501
v 234.533972 28.195278 -60.968847
v 165.944771 32.222717 34.608050
v 202.706804 32.222717 38.795730
v 135.460318 16.111358 40.101865
v 135.460318 31.339199 23.103423
v 233.185740 32.222717 38.105544
v 134.978155 -32.222717 4.098542
v 135.460318 -14.419540 40.101865
v 257.398187 -32.222390 48.578439
v 223.719569 -36.329703 -65.204067
v 257.398187 -20.139204 -60.968847
v 170.570496 -37.059102 -61.502700
v 135.460318 -34.341281 -9.346702
v 146.202695 6.128041 -55.459802
v 135.460318 9.754796 -42.849779
v 257.398187 2.430034 55.914728
v 240.621114 5.707885 60.968847
v 226.616162 -16.771794 70.762728
v 259.941803 -40.186709 2.013154
v 259.941803 -37.165912 -25.373668
v 251.522152 -41.213540 -26.432475
v 259.941803 -31.523605 3.847226
v 229.336799 -40.186793 -9.106822
vt 0.625000 0.625000
vt 0.562494 0.437506
vt 0.625000 0.375000
vt 0.531247 0.468753
vt 0.375000 0.484377
vt 0.458333 0.250000
vt 0.257812 0.250000
vt 0.375000 0.367188
vt 0.625000 0.312500
vt 0.375000 0.772922
vt 0.375000 0.974596
vt 0.391942 0.517317
vt 0.375000 0.507813
vt 0.531247 0.531247
vt 0.390756 0.750000
vt 0.625000 0.687500
vt 0.500000 0.750000
vt 0.128905 0.238282
vt 0.349596 0.000000
vt 0.140623 0.250000
vt 0.125000 -0.000000
vt 0.147922 0.000000
vt 0.125888 0.235265
vt 0.625000 0.166448
vt 0.541667 0.250000
vt 0.375000 1.000000
vt 0.625000 0.974597
vt 0.599598 1.000000
vt 0.638816 0.152632
vt 0.650403 0.000002
vt 0.875000 0.062500
vt 0.875000 0.125000
vt 0.750000 0.250000
vt 0.687500 0.250000
vt 0.375000 0.016936
vt 0.599598 0.029793
vt 0.375000 0.125000
vt 0.599437 0.163345
vt 0.625000 0.918447
vt 0.706553 0.000001
vt 0.750000 0.462399
vt 0.818851 0.031250
vt 0.562500 0.806149
vt 0.700759 0.076316
vt 0.500000 0.918447
vn 0.482827 0.824616 -0.294766
vn 0.482827 0.824616 -0.294766
vn 0.482827 0.824616 -0.294766
vn 0.423329 0.800989 -0.423331
vn 0.423329 0.800989 -0.423331
vn 0.423329 0.800989 -0.423331
vn -0.064550 -0.996264 0.057377
vn 0.081718 -0.987674 -0.133501
vn 0.908885 -0.386783 -0.155974
vn 0.999869 -0.014561 0.007138
vn 0.127621 -0.979608 0.155180
vn -0.263724 0.718465 0.643628
vn -0.263724 0.718465 0.643628
vn -0.263724 0.718465 0.643628
vn -0.999192 -0.024314 -0.032001
vn -0.999192 -0.024314 -0.032001
vn -0.999192 -0.024314 -0.032001
vn -0.999842 0.017038 0.004965
vn -0.999842 0.017038 0.004965
vn -0.999842 0.017038 0.004965
vn -1.000000 0.000000 0.000000
vn -1.000000 0.000000 0.000000
vn -1.000000 0.000000 0.000000
vn -1.000000 0.000000 0.000000
vn -1.000000 0.000000 0.000000
vn -1.000000 0.000000 0.000000
vn -1.000000 0.000000 0.000000
vn -1.000000 0.000000 0.000000
vn -1.000000 0.000000 0.000000
vn -0.027735 0.999472 0.016932
vn -0.027735 0.999472 0.016932
vn -0.027735 0.999472 0.016932
vn -0.032766 0.999436 -0.007312
vn -0.032766 0.999436 -0.007312
vn -0.032766 0.999436 -0.007312
vn -0.001686 0.997224 -0.074440
vn -0.001686 0.997224 -0.074440
vn -0.001686 0.997224 -0.074440
vn 0.010504 0.995684 -0.092212
vn 0.010504 0.995684 -0.092212
vn 0.010504 0.995684 -0.092212
vn 0.004203 0.996144 -0.087636
vn 0.004203 0.996144 -0.087636
vn 0.004203 0.996144 -0.087636
vn -0.318805 0.000000 0.947820
vn -0.318805 0.000000 0.947820
vn -0.318805 0.000000 0.947820
vn -0.128375 0.462246 0.877410
vn -0.128375 0.462246 0.877410
vn -0.128375 0.462246 0.877410
vn -0.117946 0.513077 0.850200
vn -0.117946 0.513077 0.850200
vn -0.117946 0.513077 0.850200
vn -0.094069 0.556064 0.825799
vn -0.094069 0.556064 0.825799
vn -0.094069 0.556064 0.825799
vn -0.170300 -0.882393 0.438613
vn -0.170300 -0.882393 0.438613
vn -0.170300 -0.882393 0.438613
vn -0.150915 -0.897050 0.415362
vn -0.150915 -0.897050 0.415362
vn -0.150915 -0.897050 0.415362
vn 1.000000 0.000000 0.000000
vn 1.000000 0.000000 0.000000
vn 1.000000 0.000000 0.000000
vn 0.909996 0.411806 0.048202
vn 0.909996 0.411806 0.048202
vn 0.909996 0.411806 0.048202
vn 0.717053 0.678402 0.160019
vn 0.717053 0.678402 0.160019
vn 0.717053 0.678402 0.160019
vn -0.084638 0.091082 -0.992240
vn -0.084638 0.091082 -0.992240
vn -0.084638 0.091082 -0.992240
vn -0.070318 0.077064 -0.994543
vn -0.070318 0.077064 -0.994543
vn -0.070318 0.077064 -0.994543
vn 0.101802 0.048157 -0.993638
vn 0.101803 0.048157 -0.993638
vn 0.101803 0.048157 -0.993638
vn 0.000000 0.000000 -1.000000
vn 0.000000 0.000000 -1.000000
vn 0.000000 0.000000 -1.000000
vn 0.077753 -0.984389 0.157898
vn 0.077753 -0.984389 0.157898
vn 0.077753 -0.984390 0.157898
vn 0.018166 -0.997770 0.064222
vn 0.018166 -0.997770 0.064222
vn 0.018166 -0.997770 0.064222
vn -0.242550 0.857716 -0.453312
vn -0.242550 0.857716 -0.453312
vn -0.242550 0.857716 -0.453312
vn -0.242550 0.857716 -0.453313
vn -0.242550 0.857716 -0.453313
vn -0.242550 0.857716 -0.453313
vn -0.242550 0.857716 -0.453313
vn -0.242550 0.857716 -0.453313
vn -0.242550 0.857716 -0.453313
vn -0.779739 -0.369204 -0.505663
vn -0.779739 -0.369204 -0.505663
vn -0.779739 -0.369204 -0.505663
vn -0.751451 -0.399152 -0.525356
vn -0.751451 -0.399152 -0.525356
vn -0.751451 -0.399152 -0.525356
vn 0.331281 0.667724 0.666631
vn 0.331281 0.667724 0.666631
vn 0.331281 0.667724 0.666631
vn 0.017093 0.655682 0.754843
vn 0.017093 0.655682 0.754843
vn 0.017093 0.655682 0.754843
vn 0.318779 0.204610 0.925481
vn 0.318779 0.204610 0.925481
vn 0.318779 0.204610 0.925481
vn 0.515189 -0.177518 0.838491
vn 0.515189 -0.177518 0.838491
vn 0.515189 -0.177518 0.838491
vn -0.092168 -0.993987 -0.059115
vn -0.092168 -0.993987 -0.059115
vn 0.436211 -0.799224 -0.413475
vn 0.436211 -0.799224 -0.413475
vn 0.994177 0.105808 -0.020431
vn 0.994177 0.105808 -0.020431
vn 0.998326 -0.011979 0.056582
vn 0.998326 -0.011979 0.056582
vn -0.059984 -0.984451 0.165100
vn -0.059984 -0.984451 0.165100
s off
g pCube7
usemtl initialShadingGroup
f 1/33/1 2/1/2 4/2/3
f 4/2/4 2/1/5 5/14/6
s 1
f 27/45/7 25/43/8 24/42/9 26/44/10 23/39/11
s off
f 9/7/12 8/37/13 6/6/14
f 17/22/15 11/19/16 19/18/17
f 11/19/18 12/35/19 19/18/20
f 12/35/21 8/37/22 19/18/23
f 19/18/24 8/37/25 3/20/26
f 8/37/27 9/7/28 3/20/29
f 4/4/30 3/5/31 1/3/32
f 1/3/33 3/5/34 10/9/35
f 10/9/36 3/5/37 7/25/38
f 7/25/39 3/5/40 6/6/41
f 9/8/42 6/6/43 3/5/44
f 12/35/45 22/36/46 8/37/47
f 22/36/48 21/38/49 8/37/50
f 8/37/51 21/38/52 6/6/53
f 21/38/54 7/25/55 6/6/56
f 12/26/57 11/11/58 22/28/59
f 22/28/60 11/11/61 13/27/62
f 15/31/63 2/32/64 20/29/65
f 2/32/66 1/33/67 20/29/68
f 20/29/69 1/33/70 10/34/71
f 18/12/72 5/14/73 16/15/74
f 16/15/75 5/14/76 14/17/77
f 14/17/78 5/14/79 15/16/80
f 5/14/81 2/1/82 15/16/83
f 11/11/84 17/10/85 14/17/86
f 17/10/87 16/15/88 14/17/89
f 3/5/90 4/4/91 19/13/92
f 19/13/93 4/4/94 18/12/95
f 18/12/96 4/4/97 5/14/98
f 16/21/99 17/22/100 18/23/101
f 18/23/102 17/22/103 19/18/104
f 20/24/105 10/9/106 21/38/107
f 21/38/108 10/9/109 7/25/110
f 21/38/111 22/36/112 20/29/113
f 20/29/114 22/36/115 13/30/116
s 1
f 25/43/8 27/45/7 11/11/117 14/17/118
f 15/31/119 24/41/9 25/43/8 14/17/120
f 26/44/10 24/42/9 15/31/121 20/29/122
f 13/30/123 23/40/11 26/44/10 20/29/124
f 13/27/125 11/11/126 27/45/7 23/39/11
