# This file uses centimeters as units for non-parametric coordinates.

mtllib stone 4.mtl
g default
v -217.154569 -5.451519 182.694301
v -123.361229 -5.451519 219.794283
v -217.154569 5.451519 182.694285
v -123.361229 5.451519 219.794283
v -217.154569 5.451519 106.417931
v -194.635793 5.451519 83.899171
v -217.154569 -5.451519 106.417963
v -194.635793 -5.451519 83.899211
v -122.031326 5.451519 95.879740
v -122.031326 -5.451519 95.879756
v -91.451438 5.451519 85.520721
v -81.259506 5.451519 92.829038
v -91.451438 -5.451519 85.520746
v -81.259506 -5.451519 92.829046
v -81.259506 -5.451519 209.269920
v -91.783885 -5.451519 219.794283
v -91.783885 5.451519 219.794283
v -81.259506 5.451519 209.269920
v -169.548633 -5.451519 187.930517
v -169.548633 5.451519 187.930508
vt 0.250013 0.000000
vt 0.499988 -0.000000
vt 0.250013 0.250000
vt 0.156250 0.250000
vt 0.156250 -0.000000
vt 0.416427 0.750000
vt 0.416427 0.500000
vt 0.375000 0.781250
vt 0.549994 0.500000
vt 0.549994 0.750000
vt 0.606250 0.500000
vt 0.868733 0.250000
vt 0.868733 0.000000
vt 0.606250 0.750000
vt 0.625000 0.769533
vt 0.625000 0.980896
vt 0.593750 1.000000
vt 0.499988 1.000000
vt 0.375000 0.875013
vt 0.375000 0.374987
vt 0.625000 0.269104
vt 0.625000 0.480467
vt 0.375000 0.468750
vt 0.499987 0.250000
vt 0.593750 -0.000000
vt 0.644104 0.250000
vt 0.855467 0.000000
vt 0.855467 0.250000
vt 0.644104 0.000000
vt 0.593750 0.250000
vt 0.438439 0.938451
vt 0.376890 -0.000000
vt 0.376890 0.250000
vt 0.438439 0.311549
vn 0.000000 0.000000 1.000000
vn 0.000000 0.000000 1.000000
vn 0.000000 0.000000 1.000000
vn 0.000000 0.000000 1.000000
vn 0.162809 -0.000004 -0.986658
vn 0.162810 -0.000003 -0.986658
vn 0.015713 -0.000002 -0.999877
vn 0.015713 -0.000002 -0.999876
vn 1.000000 0.000000 0.000000
vn 1.000000 0.000000 0.000000
vn 1.000000 0.000000 0.000000
vn 1.000000 0.000000 0.000000
vn -1.000000 0.000000 0.000000
vn -1.000000 0.000000 0.000000
vn -1.000000 0.000000 0.000000
vn -1.000000 0.000000 0.000000
vn 0.000000 1.000000 0.000000
vn 0.000000 1.000000 -0.000000
vn 0.000000 1.000000 0.000000
vn 0.000000 1.000000 0.000000
vn 0.000000 1.000000 -0.000000
vn 0.000000 1.000000 -0.000000
vn 0.000000 1.000000 0.000000
vn 0.000000 1.000000 0.000000
vn 0.000000 1.000000 0.000000
vn 0.000000 1.000000 0.000000
vn -0.109331 0.000002 0.994005
vn -0.367821 0.000001 0.929897
vn -0.109331 0.000001 0.994005
vn -0.367821 0.000001 0.929897
vn 0.000000 -1.000000 0.000000
vn 0.000000 -1.000000 0.000000
vn 0.000000 -1.000000 0.000000
vn 0.000000 -1.000000 0.000000
vn 0.000000 -1.000000 -0.000000
vn 0.000000 -1.000000 0.000000
vn 0.000000 -1.000000 -0.000000
vn 0.000000 -1.000000 -0.000000
vn 0.000000 -1.000000 0.000000
vn 0.000000 -1.000000 0.000000
vn -0.707106 -0.000002 -0.707107
vn -0.707107 -0.000003 -0.707107
vn -0.707106 -0.000002 -0.707107
vn -0.707106 -0.000003 -0.707107
vn -0.320843 -0.000002 -0.947132
vn -0.320843 -0.000002 -0.947132
vn 0.582735 -0.000002 -0.812662
vn 0.582734 -0.000001 -0.812663
vn 0.582735 -0.000001 -0.812663
vn 0.582734 -0.000001 -0.812663
vn 0.707106 0.000000 0.707107
vn 0.707106 0.000000 0.707107
vn 0.707106 0.000000 0.707107
vn 0.707106 0.000000 0.707107
vn -0.567858 0.000000 0.823126
vn -0.567858 0.000000 0.823126
s 1
g pCube4
usemtl initialShadingGroup
f 4/24/1 2/2/2 17/30/3
f 17/30/3 2/2/2 16/25/4
s 2
f 8/6/5 6/7/6 10/10/7
f 10/10/7 6/7/6 9/9/8
s 3
f 18/26/9 15/29/10 12/28/11
f 12/28/11 15/29/10 14/27/12
s 4
f 5/4/13 7/5/14 3/3/15
f 3/3/15 7/5/14 1/1/16
s 5
f 3/20/17 20/34/18 5/23/19
f 5/23/19 20/34/18 6/7/20
f 6/7/20 20/34/18 9/9/21
f 20/34/18 4/24/22 9/9/21
f 4/24/22 17/30/23 9/9/21
f 17/30/23 18/21/24 9/9/21
f 18/21/24 12/22/25 9/9/21
f 12/22/25 11/11/26 9/9/21
s 6
f 1/1/27 19/32/28 3/3/29
f 3/3/29 19/32/28 20/33/30
s 7
f 1/19/31 7/8/32 19/31/33
f 7/8/32 8/6/34 19/31/33
f 8/6/34 10/10/35 19/31/33
f 19/31/33 10/10/35 2/18/36
f 2/18/36 10/10/35 16/17/37
f 16/17/37 10/10/35 15/16/38
f 15/16/38 10/10/35 14/15/39
f 10/10/35 13/14/40 14/15/39
s 8
f 5/23/41 6/7/42 7/8/43
f 7/8/43 6/7/42 8/6/44
s 2
f 10/10/7 9/9/8 13/14/45
f 13/14/45 9/9/8 11/11/46
s 9
f 11/12/47 12/28/48 13/13/49
f 13/13/49 12/28/48 14/27/50
s 10
f 16/25/51 15/29/52 17/30/53
f 17/30/53 15/29/52 18/26/54
s 6
f 20/33/30 19/32/28 4/24/55
f 4/24/55 19/32/28 2/2/56
